# Blender v2.93.5 OBJ File: 'test board.blend'
# www.blender.org
mtllib board2.mtl
o Cube
v 1.000000 2.398389 -0.221135
v 1.000000 0.074226 -0.221135
v 1.000000 2.398389 0.221135
v 1.000000 0.074226 0.221135
v -1.000000 2.398389 -0.221135
v -1.000000 0.074226 -0.221135
v -1.000000 2.398389 0.221135
v -1.000000 0.074226 0.221135
vt 0.090613 0.566230
vt 0.499894 0.566231
vt 0.499894 0.656737
vt 0.090613 0.656737
vt 0.999894 0.000106
vt 0.999894 0.475724
vt 0.590613 0.475724
vt 0.590613 0.000106
vt 0.590400 0.090613
vt 0.590400 0.566231
vt 0.499894 0.090613
vt 0.090613 0.090613
vt 0.090613 0.000106
vt 0.499894 0.000106
vt 0.000106 0.566230
vt 0.000107 0.090613
vn 0.0000 1.0000 0.0000
vn 0.0000 0.0000 1.0000
vn -1.0000 0.0000 0.0000
vn 0.0000 -1.0000 0.0000
vn 1.0000 0.0000 0.0000
vn 0.0000 0.0000 -1.0000
usemtl test
s off
f 1/1/1 5/2/1 7/3/1 3/4/1
f 4/5/2 3/6/2 7/7/2 8/8/2
f 8/9/3 7/10/3 5/2/3 6/11/3
f 6/11/4 2/12/4 4/13/4 8/14/4
f 2/12/5 1/1/5 3/15/5 4/16/5
f 6/11/6 5/2/6 1/1/6 2/12/6
